{
	"asset":{
		"generator":"Khronos glTF Blender I/O v4.1.63",
		"version":"2.0"
	},
	"scene":0,
	"scenes":[
		{
			"name":"Scene",
			"nodes":[
				0
			]
		}
	],
	"nodes":[
		{
			"mesh":0,
			"name":"Plate",
			"rotation":[
				0.7071068286895752,
				0,
				0,
				0.7071068286895752
			]
		}
	],
	"materials":[
		{
			"doubleSided":true,
			"name":"Plate",
			"pbrMetallicRoughness":{
				"metallicFactor":0,
				"roughnessFactor":0.05999999865889549
			}
		}
	],
	"meshes":[
		{
			"name":"Plate",
			"primitives":[
				{
					"attributes":{
						"POSITION":0,
						"NORMAL":1,
						"TEXCOORD_0":2
					},
					"indices":3,
					"material":0
				}
			]
		}
	],
	"accessors":[
		{
			"bufferView":0,
			"componentType":5126,
			"count":7305,
			"max":[
				4.7246527671813965,
				4.7246527671813965,
				0.003421999979764223
			],
			"min":[
				-4.724650859832764,
				-4.724650859832764,
				-0.9293820261955261
			],
			"type":"VEC3"
		},
		{
			"bufferView":1,
			"componentType":5126,
			"count":7305,
			"type":"VEC3"
		},
		{
			"bufferView":2,
			"componentType":5126,
			"count":7305,
			"type":"VEC2"
		},
		{
			"bufferView":3,
			"componentType":5123,
			"count":40704,
			"type":"SCALAR"
		}
	],
	"bufferViews":[
		{
			"buffer":0,
			"byteLength":87660,
			"byteOffset":0,
			"target":34962
		},
		{
			"buffer":0,
			"byteLength":87660,
			"byteOffset":87660,
			"target":34962
		},
		{
			"buffer":0,
			"byteLength":58440,
			"byteOffset":175320,
			"target":34962
		},
		{
			"buffer":0,
			"byteLength":81408,
			"byteOffset":233760,
			"target":34963
		}
	],
	"buffers":[
		{
			"byteLength":315168,
			"uri":"plato.bin"
		}
	]
}
