{
	"asset":{
		"generator":"Khronos glTF Blender I/O v4.1.63",
		"version":"2.0"
	},
	"extensionsUsed":[
		"KHR_materials_specular"
	],
	"scene":0,
	"scenes":[
		{
			"name":"Scene",
			"nodes":[
				0,
				1
			]
		}
	],
	"nodes":[
		{
			"mesh":0,
			"name":"Plato Granadino"
		},
		{
			"mesh":1,
			"name":"Plano"
		}
	],
	"materials":[
		{
			"doubleSided":true,
			"extensions":{
				"KHR_materials_specular":{
					"specularFactor":0
				}
			},
			"name":"platoHondo",
			"pbrMetallicRoughness":{
				"baseColorTexture":{
					"index":0
				},
				"metallicFactor":0.009999999776482582,
				"roughnessFactor":0.8999999761581421
			}
		},
		{
			"doubleSided":true,
			"name":"platoBorde",
			"pbrMetallicRoughness":{
				"metallicFactor":0,
				"roughnessFactor":0.30000001192092896
			}
		},
		{
			"doubleSided":true,
			"name":"Sopa",
			"pbrMetallicRoughness":{
				"baseColorTexture":{
					"index":1
				},
				"metallicFactor":0,
				"roughnessFactor":0.8999999761581421
			}
		}
	],
	"meshes":[
		{
			"name":"Circle.008",
			"primitives":[
				{
					"attributes":{
						"POSITION":0,
						"NORMAL":1,
						"TEXCOORD_0":2
					},
					"indices":3,
					"material":0
				},
				{
					"attributes":{
						"POSITION":4,
						"NORMAL":5,
						"TEXCOORD_0":6
					},
					"indices":7,
					"material":1
				}
			]
		},
		{
			"name":"Plano",
			"primitives":[
				{
					"attributes":{
						"POSITION":8,
						"NORMAL":9,
						"TEXCOORD_0":10
					},
					"indices":11,
					"material":2
				}
			]
		}
	],
	"textures":[
		{
			"sampler":0,
			"source":0
		},
		{
			"sampler":0,
			"source":1
		}
	],
	"images":[
		{
			"mimeType":"image/jpeg",
			"name":"plato_n",
			"uri":"plato_n.jpg"
		},
		{
			"mimeType":"image/png",
			"name":"sopSemola_n",
			"uri":"sopSemola_n.png"
		}
	],
	"accessors":[
		{
			"bufferView":0,
			"componentType":5126,
			"count":513,
			"max":[
				4.128754615783691,
				2.292706251144409,
				4.128754615783691
			],
			"min":[
				-4.128754615783691,
				0.023615460842847824,
				-4.128754615783691
			],
			"type":"VEC3"
		},
		{
			"bufferView":1,
			"componentType":5126,
			"count":513,
			"type":"VEC3"
		},
		{
			"bufferView":2,
			"componentType":5126,
			"count":513,
			"type":"VEC2"
		},
		{
			"bufferView":3,
			"componentType":5123,
			"count":2784,
			"type":"SCALAR"
		},
		{
			"bufferView":4,
			"componentType":5126,
			"count":524,
			"max":[
				4.200284481048584,
				2.337719440460205,
				4.20028829574585
			],
			"min":[
				-4.20028829574585,
				-0.16570137441158295,
				-4.20028829574585
			],
			"type":"VEC3"
		},
		{
			"bufferView":5,
			"componentType":5126,
			"count":524,
			"type":"VEC3"
		},
		{
			"bufferView":6,
			"componentType":5126,
			"count":524,
			"type":"VEC2"
		},
		{
			"bufferView":7,
			"componentType":5123,
			"count":2592,
			"type":"SCALAR"
		},
		{
			"bufferView":8,
			"componentType":5126,
			"count":309,
			"max":[
				3.9712626934051514,
				1.8319511413574219,
				3.9712626934051514
			],
			"min":[
				-3.9712626934051514,
				1.520801067352295,
				-3.9712626934051514
			],
			"type":"VEC3"
		},
		{
			"bufferView":9,
			"componentType":5126,
			"count":309,
			"type":"VEC3"
		},
		{
			"bufferView":10,
			"componentType":5126,
			"count":309,
			"type":"VEC2"
		},
		{
			"bufferView":11,
			"componentType":5123,
			"count":1536,
			"type":"SCALAR"
		}
	],
	"bufferViews":[
		{
			"buffer":0,
			"byteLength":6156,
			"byteOffset":0,
			"target":34962
		},
		{
			"buffer":0,
			"byteLength":6156,
			"byteOffset":6156,
			"target":34962
		},
		{
			"buffer":0,
			"byteLength":4104,
			"byteOffset":12312,
			"target":34962
		},
		{
			"buffer":0,
			"byteLength":5568,
			"byteOffset":16416,
			"target":34963
		},
		{
			"buffer":0,
			"byteLength":6288,
			"byteOffset":21984,
			"target":34962
		},
		{
			"buffer":0,
			"byteLength":6288,
			"byteOffset":28272,
			"target":34962
		},
		{
			"buffer":0,
			"byteLength":4192,
			"byteOffset":34560,
			"target":34962
		},
		{
			"buffer":0,
			"byteLength":5184,
			"byteOffset":38752,
			"target":34963
		},
		{
			"buffer":0,
			"byteLength":3708,
			"byteOffset":43936,
			"target":34962
		},
		{
			"buffer":0,
			"byteLength":3708,
			"byteOffset":47644,
			"target":34962
		},
		{
			"buffer":0,
			"byteLength":2472,
			"byteOffset":51352,
			"target":34962
		},
		{
			"buffer":0,
			"byteLength":3072,
			"byteOffset":53824,
			"target":34963
		}
	],
	"samplers":[
		{
			"magFilter":9729,
			"minFilter":9987
		}
	],
	"buffers":[
		{
			"byteLength":56896,
			"uri":"sopaSemola.bin"
		}
	]
}
