{
	"asset":{
		"generator":"Khronos glTF Blender I/O v4.1.63",
		"version":"2.0"
	},
	"scene":0,
	"scenes":[
		{
			"name":"Scene",
			"nodes":[
				0,
				1,
				2,
				3
			]
		}
	],
	"nodes":[
		{
			"mesh":0,
			"name":"Plano"
		},
		{
			"mesh":1,
			"name":"Esfera"
		},
		{
			"mesh":2,
			"name":"Suzanne"
		},
		{
			"mesh":3,
			"name":"Suzanne.001"
		}
	],
	"materials":[
		{
			"doubleSided":true,
			"name":"Material",
			"pbrMetallicRoughness":{
				"baseColorTexture":{
					"index":0
				},
				"metallicFactor":0,
				"roughnessFactor":0.5
			}
		}
	],
	"meshes":[
		{
			"name":"Plano",
			"primitives":[
				{
					"attributes":{
						"POSITION":0,
						"NORMAL":1,
						"TEXCOORD_0":2
					},
					"indices":3
				}
			]
		},
		{
			"name":"Esfera",
			"primitives":[
				{
					"attributes":{
						"POSITION":4,
						"NORMAL":5,
						"TEXCOORD_0":6
					},
					"indices":7
				}
			]
		},
		{
			"name":"Suzanne",
			"primitives":[
				{
					"attributes":{
						"POSITION":8,
						"NORMAL":9,
						"TEXCOORD_0":10
					},
					"indices":11
				}
			]
		},
		{
			"name":"Suzanne.001",
			"primitives":[
				{
					"attributes":{
						"POSITION":12,
						"NORMAL":13,
						"TEXCOORD_0":14
					},
					"indices":15,
					"material":0
				}
			]
		}
	],
	"textures":[
		{
			"sampler":0,
			"source":0
		}
	],
	"images":[
		{
			"mimeType":"image/png",
			"name":"suzan_n",
			"uri":"suzan_n.png"
		}
	],
	"accessors":[
		{
			"bufferView":0,
			"componentType":5126,
			"count":210,
			"max":[
				5.120170593261719,
				0,
				5.120170593261719
			],
			"min":[
				-5.120170593261719,
				-0.6708179712295532,
				-5.120170593261719
			],
			"type":"VEC3"
		},
		{
			"bufferView":1,
			"componentType":5126,
			"count":210,
			"type":"VEC3"
		},
		{
			"bufferView":2,
			"componentType":5126,
			"count":210,
			"type":"VEC2"
		},
		{
			"bufferView":3,
			"componentType":5123,
			"count":1248,
			"type":"SCALAR"
		},
		{
			"bufferView":4,
			"componentType":5126,
			"count":1118,
			"max":[
				1.086251139640808,
				3.7205183506011963,
				1.086250901222229
			],
			"min":[
				-1.0862505435943604,
				-0.0036187334917485714,
				-1.0862514972686768
			],
			"type":"VEC3"
		},
		{
			"bufferView":5,
			"componentType":5126,
			"count":1118,
			"type":"VEC3"
		},
		{
			"bufferView":6,
			"componentType":5126,
			"count":1118,
			"type":"VEC2"
		},
		{
			"bufferView":7,
			"componentType":5123,
			"count":5760,
			"type":"SCALAR"
		},
		{
			"bufferView":8,
			"componentType":5126,
			"count":1966,
			"max":[
				4.142849922180176,
				1.7426469326019287,
				1.2643711566925049
			],
			"min":[
				1.1273020505905151,
				-0.011315345764160156,
				-1.0489369630813599
			],
			"type":"VEC3"
		},
		{
			"bufferView":9,
			"componentType":5126,
			"count":1966,
			"type":"VEC3"
		},
		{
			"bufferView":10,
			"componentType":5126,
			"count":1966,
			"type":"VEC2"
		},
		{
			"bufferView":11,
			"componentType":5123,
			"count":2904,
			"type":"SCALAR"
		},
		{
			"bufferView":12,
			"componentType":5126,
			"count":2109,
			"max":[
				-1.1113154888153076,
				2.0130460262298584,
				1.5180559158325195
			],
			"min":[
				-4.531377792358398,
				0.03820457309484482,
				-1.0574820041656494
			],
			"type":"VEC3"
		},
		{
			"bufferView":13,
			"componentType":5126,
			"count":2109,
			"type":"VEC3"
		},
		{
			"bufferView":14,
			"componentType":5126,
			"count":2109,
			"type":"VEC2"
		},
		{
			"bufferView":15,
			"componentType":5123,
			"count":11808,
			"type":"SCALAR"
		}
	],
	"bufferViews":[
		{
			"buffer":0,
			"byteLength":2520,
			"byteOffset":0,
			"target":34962
		},
		{
			"buffer":0,
			"byteLength":2520,
			"byteOffset":2520,
			"target":34962
		},
		{
			"buffer":0,
			"byteLength":1680,
			"byteOffset":5040,
			"target":34962
		},
		{
			"buffer":0,
			"byteLength":2496,
			"byteOffset":6720,
			"target":34963
		},
		{
			"buffer":0,
			"byteLength":13416,
			"byteOffset":9216,
			"target":34962
		},
		{
			"buffer":0,
			"byteLength":13416,
			"byteOffset":22632,
			"target":34962
		},
		{
			"buffer":0,
			"byteLength":8944,
			"byteOffset":36048,
			"target":34962
		},
		{
			"buffer":0,
			"byteLength":11520,
			"byteOffset":44992,
			"target":34963
		},
		{
			"buffer":0,
			"byteLength":23592,
			"byteOffset":56512,
			"target":34962
		},
		{
			"buffer":0,
			"byteLength":23592,
			"byteOffset":80104,
			"target":34962
		},
		{
			"buffer":0,
			"byteLength":15728,
			"byteOffset":103696,
			"target":34962
		},
		{
			"buffer":0,
			"byteLength":5808,
			"byteOffset":119424,
			"target":34963
		},
		{
			"buffer":0,
			"byteLength":25308,
			"byteOffset":125232,
			"target":34962
		},
		{
			"buffer":0,
			"byteLength":25308,
			"byteOffset":150540,
			"target":34962
		},
		{
			"buffer":0,
			"byteLength":16872,
			"byteOffset":175848,
			"target":34962
		},
		{
			"buffer":0,
			"byteLength":23616,
			"byteOffset":192720,
			"target":34963
		}
	],
	"samplers":[
		{
			"magFilter":9729,
			"minFilter":9987
		}
	],
	"buffers":[
		{
			"byteLength":216336,
			"uri":"suzan.bin"
		}
	]
}
