{
	"asset":{
		"generator":"Khronos glTF Blender I/O v4.1.63",
		"version":"2.0"
	},
	"extensionsUsed":[
		"KHR_materials_specular",
		"KHR_materials_ior"
	],
	"scene":0,
	"scenes":[
		{
			"name":"Scene",
			"nodes":[
				0
			]
		}
	],
	"nodes":[
		{
			"mesh":0,
			"name":"Plato"
		}
	],
	"materials":[
		{
			"doubleSided":true,
			"extensions":{
				"KHR_materials_specular":{
					"specularFactor":0
				},
				"KHR_materials_ior":{
					"ior":1.4499999284744263
				}
			},
			"name":"Plate",
			"pbrMetallicRoughness":{
				"metallicFactor":0,
				"roughnessFactor":0.5
			}
		},
		{
			"doubleSided":true,
			"name":"mote",
			"pbrMetallicRoughness":{
				"baseColorTexture":{
					"index":0
				},
				"metallicFactor":0,
				"roughnessFactor":0.5
			}
		},
		{
			"doubleSided":true,
			"name":"pescado.001",
			"pbrMetallicRoughness":{
				"baseColorTexture":{
					"index":1
				},
				"metallicFactor":0,
				"roughnessFactor":0.5
			}
		}
	],
	"meshes":[
		{
			"name":"Circle",
			"primitives":[
				{
					"attributes":{
						"POSITION":0,
						"NORMAL":1,
						"TEXCOORD_0":2
					},
					"indices":3,
					"material":0
				},
				{
					"attributes":{
						"POSITION":4,
						"NORMAL":5,
						"TEXCOORD_0":6
					},
					"indices":7,
					"material":1
				},
				{
					"attributes":{
						"POSITION":8,
						"NORMAL":9,
						"TEXCOORD_0":10
					},
					"indices":11,
					"material":2
				}
			]
		}
	],
	"textures":[
		{
			"sampler":0,
			"source":0
		},
		{
			"sampler":0,
			"source":1
		}
	],
	"images":[
		{
			"mimeType":"image/png",
			"name":"mote_n",
			"uri":"mote_n.png"
		},
		{
			"mimeType":"image/png",
			"name":"pescado_n",
			"uri":"pescado_n.png"
		}
	],
	"accessors":[
		{
			"bufferView":0,
			"componentType":5126,
			"count":319,
			"max":[
				4.168623924255371,
				0.8160263299942017,
				4.168623924255371
			],
			"min":[
				-4.168622970581055,
				0.00823909044265747,
				-4.168622970581055
			],
			"type":"VEC3"
		},
		{
			"bufferView":1,
			"componentType":5126,
			"count":319,
			"type":"VEC3"
		},
		{
			"bufferView":2,
			"componentType":5126,
			"count":319,
			"type":"VEC2"
		},
		{
			"bufferView":3,
			"componentType":5123,
			"count":1332,
			"type":"SCALAR"
		},
		{
			"bufferView":4,
			"componentType":5126,
			"count":1564,
			"max":[
				-0.18528401851654053,
				1.2149325609207153,
				3.2352840900421143
			],
			"min":[
				-3.204671621322632,
				0.13230562210083008,
				-2.7144103050231934
			],
			"type":"VEC3"
		},
		{
			"bufferView":5,
			"componentType":5126,
			"count":1564,
			"type":"VEC3"
		},
		{
			"bufferView":6,
			"componentType":5126,
			"count":1564,
			"type":"VEC2"
		},
		{
			"bufferView":7,
			"componentType":5123,
			"count":7176,
			"type":"SCALAR"
		},
		{
			"bufferView":8,
			"componentType":5126,
			"count":4320,
			"max":[
				3.022324323654175,
				1.620393991470337,
				2.838855028152466
			],
			"min":[
				-0.9807134866714478,
				0.007137775421142578,
				-2.824815034866333
			],
			"type":"VEC3"
		},
		{
			"bufferView":9,
			"componentType":5126,
			"count":4320,
			"type":"VEC3"
		},
		{
			"bufferView":10,
			"componentType":5126,
			"count":4320,
			"type":"VEC2"
		},
		{
			"bufferView":11,
			"componentType":5123,
			"count":22752,
			"type":"SCALAR"
		}
	],
	"bufferViews":[
		{
			"buffer":0,
			"byteLength":3828,
			"byteOffset":0,
			"target":34962
		},
		{
			"buffer":0,
			"byteLength":3828,
			"byteOffset":3828,
			"target":34962
		},
		{
			"buffer":0,
			"byteLength":2552,
			"byteOffset":7656,
			"target":34962
		},
		{
			"buffer":0,
			"byteLength":2664,
			"byteOffset":10208,
			"target":34963
		},
		{
			"buffer":0,
			"byteLength":18768,
			"byteOffset":12872,
			"target":34962
		},
		{
			"buffer":0,
			"byteLength":18768,
			"byteOffset":31640,
			"target":34962
		},
		{
			"buffer":0,
			"byteLength":12512,
			"byteOffset":50408,
			"target":34962
		},
		{
			"buffer":0,
			"byteLength":14352,
			"byteOffset":62920,
			"target":34963
		},
		{
			"buffer":0,
			"byteLength":51840,
			"byteOffset":77272,
			"target":34962
		},
		{
			"buffer":0,
			"byteLength":51840,
			"byteOffset":129112,
			"target":34962
		},
		{
			"buffer":0,
			"byteLength":34560,
			"byteOffset":180952,
			"target":34962
		},
		{
			"buffer":0,
			"byteLength":45504,
			"byteOffset":215512,
			"target":34963
		}
	],
	"samplers":[
		{
			"magFilter":9729,
			"minFilter":9987
		}
	],
	"buffers":[
		{
			"byteLength":261016,
			"uri":"ceviche.bin"
		}
	]
}
